<svg width="52" height="52" viewBox="0 0 52 52" fill="none" xmlns="http://www.w3.org/2000/svg">
<path d="M1 13.6016V16.0407L26.1908 27.0163L36.1145 22.9512M38.5954 21.7317L51 16.0407V13.6016M28.8626 13.6016L38.5954 17.4634M38.5954 17.4634L51 11.9756L26.1908 1L1 11.9756L26.1908 22.9512L35.7328 18.8862M38.5954 17.4634V41.2439M42.2214 23.7642C42.2214 23.7642 42.2214 28.9727 42.2214 30.2683C42.2214 31.5639 38.0229 39.6179 26.1908 39.6179M26.1908 39.6179C14.3588 39.6179 9.77863 32.7073 9.77863 31.0813C9.77863 29.4553 9.77863 23.7642 9.77863 23.7642M26.1908 39.6179V30.2683M36.1145 46.5285L34.9695 51M38.5954 47.3415V51M42.2214 51L41.0763 46.5285" stroke="white" stroke-width="2" stroke-linejoin="round"/>
<ellipse cx="26.9542" cy="11.9756" rx="3.43511" ry="2.43902"  stroke="white" stroke-width="2" stroke-linejoin="round"/>
<ellipse cx="38.7861" cy="43.6829" rx="2.29008" ry="2.43902"  stroke="white" stroke-width="2" stroke-linejoin="round"/>
</svg>

