<svg width="142" height="14" viewBox="0 0 142 14" fill="none" xmlns="http://www.w3.org/2000/svg">
<path d="M4.60382 10.4L0.315816 6.096L4.60382 1.808L5.89982 3.136L2.93982 6.096L5.89982 9.072L4.60382 10.4ZM7.34957 13.744L12.2936 0.207999H14.9336L9.98957 13.744H7.34957ZM16.6098 12V9.888H22.6098L23.2338 9.248V7.6L22.6098 6.96L17.9538 6.976L16.1778 5.184V1.984L17.9538 0.207999H25.0738V2.32H19.2818L18.6578 2.96V4.256L19.2818 4.896H23.9378L25.7138 6.672V10.224L23.9378 12H16.6098ZM27.7984 12V0.207999H30.2624V4.736L31.4784 3.632H34.4224L36.1984 5.424V12H33.7344V5.856L33.1264 5.232H31.8464L30.2624 6.688V12H27.7984ZM40.0737 12L38.2977 10.224V5.424L40.0737 3.648H44.3297L46.1217 5.424V8.56H40.7617V9.52L41.4017 10.16L45.9777 10.144V12H40.0737ZM40.7457 6.944H43.7857V5.856L43.1457 5.216L41.4017 5.232L40.7457 5.856V6.944ZM49.9524 12L48.1764 10.224V5.424L49.9524 3.632H52.9444L54.1604 4.768V0.207999H56.6244V12H54.1604V10.88L52.9444 12H49.9524ZM52.5924 10.4L54.1604 8.928V6.704L52.6084 5.248L51.1364 5.232L50.5924 5.808V9.84L51.1364 10.4H52.5924ZM60.6924 12L58.9164 10.224V3.648H61.3804L61.3644 9.76L61.9884 10.416H63.1244L64.7724 8.88V3.648H67.2364V12H64.7724V10.832L63.4764 12H60.6924ZM69.6416 12V0.207999H72.1056V12H69.6416ZM74.5047 2.72V0.608H76.9687V2.72H74.5047ZM74.5047 12V3.632H76.9687V12H74.5047ZM79.0958 12V9.824L84.7918 2.816V2.336H79.4638V0.207999H88.1198V2.384L82.4398 9.392V9.872H88.1198V12H79.0958ZM89.9589 12V9.824L95.6549 2.816V2.336H90.3269V0.207999H98.9829V2.384L93.3029 9.392V9.872H98.9829V12H89.9589ZM100.822 12V9.824L106.518 2.816V2.336H101.19V0.207999H109.846V2.384L104.166 9.392V9.872H109.846V12H100.822ZM112.479 12L110.703 10.224V5.424L112.479 3.648H116.735L118.527 5.424V8.56H113.167V9.52L113.807 10.16L118.383 10.144V12H112.479ZM113.151 6.944H116.191V5.856L115.551 5.216L113.807 5.232L113.151 5.856V6.944ZM120.773 12V3.632H123.237V5.024L124.693 3.648H126.469V5.952H124.325L123.237 6.992V12H120.773ZM127.07 13.744L132.014 0.207999H134.654L129.71 13.744H127.07ZM137.402 10.4L136.106 9.072L139.066 6.112L136.106 3.136L137.402 1.808L141.69 6.112L137.402 10.4Z" fill="#FF7B33"/>
</svg>
