<svg width="30" height="30" viewBox="0 0 30 30" fill="none" xmlns="http://www.w3.org/2000/svg">
<path d="M13.75 13.75L20.95 4.525C21.153 4.26441 21.2446 3.93407 21.2047 3.60616C21.1649 3.27825 20.9969 2.97943 20.7375 2.775C20.5277 2.60631 20.269 2.50986 20 2.5H2.49998C2.21803 2.50164 1.9449 2.59855 1.72498 2.775C1.46552 2.97943 1.29753 3.27825 1.25772 3.60616C1.2179 3.93407 1.30949 4.26441 1.51248 4.525L8.74998 13.75V21.0875C8.72737 21.2766 8.74827 21.4684 8.81109 21.6482C8.87392 21.828 8.97701 21.9911 9.11248 22.125L11.6125 24.625C11.8467 24.8578 12.1635 24.9885 12.4937 24.9885C12.824 24.9885 13.1408 24.8578 13.375 24.625C13.5127 24.4923 13.6181 24.3297 13.6831 24.1499C13.7481 23.97 13.771 23.7776 13.75 23.5875V13.75ZM16.25 20L22.5 26.25L28.75 20H16.25Z" fill="#828282"/>
</svg>
