<svg width="212" height="28" viewBox="0 0 212 28" fill="none" xmlns="http://www.w3.org/2000/svg">
<path d="M9.51172 15.5918C6.61719 14.7598 4.50781 13.7402 3.18359 12.5332C1.87109 11.3145 1.21484 9.81445 1.21484 8.0332C1.21484 6.01758 2.01758 4.35352 3.62305 3.04102C5.24023 1.7168 7.33789 1.05469 9.91602 1.05469C11.6738 1.05469 13.2383 1.39453 14.6094 2.07422C15.9922 2.75391 17.0586 3.69141 17.8086 4.88672C18.5703 6.08203 18.9512 7.38867 18.9512 8.80664H15.5586C15.5586 7.25977 15.0664 6.04688 14.082 5.16797C13.0977 4.27734 11.709 3.83203 9.91602 3.83203C8.25195 3.83203 6.95117 4.20117 6.01367 4.93945C5.08789 5.66602 4.625 6.67969 4.625 7.98047C4.625 9.02344 5.06445 9.9082 5.94336 10.6348C6.83398 11.3496 8.33984 12.0059 10.4609 12.6035C12.5938 13.2012 14.2578 13.8633 15.4531 14.5898C16.6602 15.3047 17.5508 16.1426 18.125 17.1035C18.7109 18.0645 19.0039 19.1953 19.0039 20.4961C19.0039 22.5703 18.1953 24.2344 16.5781 25.4883C14.9609 26.7305 12.7988 27.3516 10.0918 27.3516C8.33398 27.3516 6.69336 27.0176 5.16992 26.3496C3.64648 25.6699 2.46875 24.7441 1.63672 23.5723C0.816406 22.4004 0.40625 21.0703 0.40625 19.582H3.79883C3.79883 21.1289 4.36719 22.3535 5.50391 23.2559C6.65234 24.1465 8.18164 24.5918 10.0918 24.5918C11.873 24.5918 13.2383 24.2285 14.1875 23.502C15.1367 22.7754 15.6113 21.7852 15.6113 20.5312C15.6113 19.2773 15.1719 18.3105 14.293 17.6309C13.4141 16.9395 11.8203 16.2598 9.51172 15.5918ZM26.0879 10.2832C27.5293 8.51367 29.4043 7.62891 31.7129 7.62891C35.7324 7.62891 37.7598 9.89648 37.7949 14.4316V27H34.543V14.4141C34.5312 13.043 34.2148 12.0293 33.5938 11.373C32.9844 10.7168 32.0293 10.3887 30.7285 10.3887C29.6738 10.3887 28.748 10.6699 27.9512 11.2324C27.1543 11.7949 26.5332 12.5332 26.0879 13.4473V27H22.8359V0H26.0879V10.2832ZM50.5566 27.3516C47.9785 27.3516 45.8809 26.5078 44.2637 24.8203C42.6465 23.1211 41.8379 20.8535 41.8379 18.0176V17.4199C41.8379 15.5332 42.1953 13.8516 42.9102 12.375C43.6367 10.8867 44.6445 9.72656 45.9336 8.89453C47.2344 8.05078 48.6406 7.62891 50.1523 7.62891C52.625 7.62891 54.5469 8.44336 55.918 10.0723C57.2891 11.7012 57.9746 14.0332 57.9746 17.0684V18.4219H45.0898C45.1367 20.2969 45.6816 21.8145 46.7246 22.9746C47.7793 24.123 49.1152 24.6973 50.7324 24.6973C51.8809 24.6973 52.8535 24.4629 53.6504 23.9941C54.4473 23.5254 55.1445 22.9043 55.7422 22.1309L57.7285 23.6777C56.1348 26.127 53.7441 27.3516 50.5566 27.3516ZM50.1523 10.3008C48.8398 10.3008 47.7383 10.7812 46.8477 11.7422C45.957 12.6914 45.4062 14.0273 45.1953 15.75H54.7227V15.5039C54.6289 13.8516 54.1836 12.5742 53.3867 11.6719C52.5898 10.7578 51.5117 10.3008 50.1523 10.3008ZM60.9629 17.332C60.9629 14.4141 61.6543 12.0703 63.0371 10.3008C64.4199 8.51953 66.2305 7.62891 68.4688 7.62891C70.6953 7.62891 72.459 8.39062 73.7598 9.91406V0H77.0117V27H74.0234L73.8652 24.9609C72.5645 26.5547 70.7539 27.3516 68.4336 27.3516C66.2305 27.3516 64.4316 26.4492 63.0371 24.6445C61.6543 22.8398 60.9629 20.4844 60.9629 17.5781V17.332ZM64.2148 17.7012C64.2148 19.8574 64.6602 21.5449 65.5508 22.7637C66.4414 23.9824 67.6719 24.5918 69.2422 24.5918C71.3047 24.5918 72.8105 23.666 73.7598 21.8145V13.0781C72.7871 11.2852 71.293 10.3887 69.2773 10.3887C67.6836 10.3887 66.4414 11.0039 65.5508 12.2344C64.6602 13.4648 64.2148 15.2871 64.2148 17.7012ZM93.8164 25.1191C92.5508 26.6074 90.6934 27.3516 88.2441 27.3516C86.2168 27.3516 84.6699 26.7656 83.6035 25.5938C82.5488 24.4102 82.0156 22.6641 82.0039 20.3555V7.98047H85.2559V20.2676C85.2559 23.1504 86.4277 24.5918 88.7715 24.5918C91.2559 24.5918 92.9082 23.666 93.7285 21.8145V7.98047H96.9805V27H93.8867L93.8164 25.1191ZM105.471 27H102.219V0H105.471V27ZM114.225 27H110.973V7.98047H114.225V27ZM110.709 2.93555C110.709 2.4082 110.867 1.96289 111.184 1.59961C111.512 1.23633 111.992 1.05469 112.625 1.05469C113.258 1.05469 113.738 1.23633 114.066 1.59961C114.395 1.96289 114.559 2.4082 114.559 2.93555C114.559 3.46289 114.395 3.90234 114.066 4.25391C113.738 4.60547 113.258 4.78125 112.625 4.78125C111.992 4.78125 111.512 4.60547 111.184 4.25391C110.867 3.90234 110.709 3.46289 110.709 2.93555ZM122.486 24.2402H137.129V27H118.496V24.4688L132.523 4.18359H118.725V1.40625H136.566V3.88477L122.486 24.2402ZM144.037 24.2402H158.68V27H140.047V24.4688L154.074 4.18359H140.275V1.40625H158.117V3.88477L144.037 24.2402ZM165.588 24.2402H180.23V27H161.598V24.4688L175.625 4.18359H161.826V1.40625H179.668V3.88477L165.588 24.2402ZM191.604 27.3516C189.025 27.3516 186.928 26.5078 185.311 24.8203C183.693 23.1211 182.885 20.8535 182.885 18.0176V17.4199C182.885 15.5332 183.242 13.8516 183.957 12.375C184.684 10.8867 185.691 9.72656 186.98 8.89453C188.281 8.05078 189.688 7.62891 191.199 7.62891C193.672 7.62891 195.594 8.44336 196.965 10.0723C198.336 11.7012 199.021 14.0332 199.021 17.0684V18.4219H186.137C186.184 20.2969 186.729 21.8145 187.771 22.9746C188.826 24.123 190.162 24.6973 191.779 24.6973C192.928 24.6973 193.9 24.4629 194.697 23.9941C195.494 23.5254 196.191 22.9043 196.789 22.1309L198.775 23.6777C197.182 26.127 194.791 27.3516 191.604 27.3516ZM191.199 10.3008C189.887 10.3008 188.785 10.7812 187.895 11.7422C187.004 12.6914 186.453 14.0273 186.242 15.75H195.77V15.5039C195.676 13.8516 195.23 12.5742 194.434 11.6719C193.637 10.7578 192.559 10.3008 191.199 10.3008ZM211.994 10.8984C211.502 10.8164 210.969 10.7754 210.395 10.7754C208.262 10.7754 206.814 11.6836 206.053 13.5V27H202.801V7.98047H205.965L206.018 10.1777C207.084 8.47852 208.596 7.62891 210.553 7.62891C211.186 7.62891 211.666 7.71094 211.994 7.875V10.8984Z" fill="white"/>
</svg>
