<svg width="28" height="25" viewBox="0 0 28 25" fill="none" xmlns="http://www.w3.org/2000/svg">
<path d="M12.75 11.75L19.95 2.525C20.153 2.26441 20.2446 1.93407 20.2047 1.60616C20.1649 1.27825 19.9969 0.979433 19.7375 0.775C19.5277 0.606307 19.269 0.509857 19 0.5H1.49998C1.21803 0.501636 0.944905 0.598549 0.724981 0.775C0.465524 0.979433 0.297533 1.27825 0.257716 1.60616C0.217898 1.93407 0.309491 2.26441 0.512481 2.525L7.74998 11.75V19.0875C7.72737 19.2766 7.74827 19.4684 7.81109 19.6482C7.87392 19.828 7.97701 19.9911 8.11248 20.125L10.6125 22.625C10.8467 22.8578 11.1635 22.9885 11.4937 22.9885C11.824 22.9885 12.1408 22.8578 12.375 22.625C12.5127 22.4923 12.6181 22.3297 12.6831 22.1499C12.7481 21.97 12.771 21.7776 12.75 21.5875V11.75ZM15.25 18L21.5 24.25L27.75 18H15.25Z" fill="#828282"/>
</svg>
