<svg width="24" height="24" viewBox="0 0 24 24" fill="none" xmlns="http://www.w3.org/2000/svg">
<path d="M22.7812 21.4922H1.21875C0.700195 21.4922 0.28125 21.9111 0.28125 22.4297V23.4844C0.28125 23.6133 0.386719 23.7188 0.515625 23.7188H23.4844C23.6133 23.7188 23.7188 23.6133 23.7188 23.4844V22.4297C23.7188 21.9111 23.2998 21.4922 22.7812 21.4922ZM4.54981 19.0312C4.6084 19.0312 4.66699 19.0254 4.72559 19.0166L9.65332 18.1523C9.71191 18.1406 9.76758 18.1143 9.80859 18.0703L22.2275 5.65137C22.2547 5.62426 22.2762 5.59207 22.2909 5.55663C22.3056 5.52119 22.3132 5.48319 22.3132 5.44482C22.3132 5.40645 22.3056 5.36846 22.2909 5.33302C22.2762 5.29758 22.2547 5.26539 22.2275 5.23828L17.3584 0.366211C17.3027 0.310547 17.2295 0.28125 17.1504 0.28125C17.0713 0.28125 16.998 0.310547 16.9424 0.366211L4.52344 12.7852C4.47949 12.8291 4.45312 12.8818 4.44141 12.9404L3.57715 17.8682C3.54865 18.0251 3.55883 18.1866 3.60682 18.3388C3.6548 18.4909 3.73914 18.629 3.85254 18.7412C4.0459 18.9287 4.28906 19.0312 4.54981 19.0312Z" fill="#2791FE"/>
</svg>
