<svg width="50" height="50" viewBox="0 0 50 50" fill="none" xmlns="http://www.w3.org/2000/svg">
<g clip-path="url(#clip0)">
<path d="M10.6219 19.5781V16.4929V14.532C10.6219 14.4906 10.6055 14.4539 10.5836 14.4539H8.06249C8.04139 14.4539 8.02264 14.4906 8.02264 14.532V19.5781C8.02264 19.5999 8.02889 19.6179 8.03202 19.6304L8.03514 19.6328H8.03827C8.04139 19.6453 8.05233 19.6539 8.06249 19.6539H10.5836C10.6047 19.6539 10.6219 19.621 10.6219 19.5781Z" fill="#D1D2D3"/>
<path d="M16.4609 17.6672H2.07187C1.95312 17.6672 1.85547 17.6836 1.85547 17.7055V20.1313C1.85547 20.1524 1.95312 20.168 2.07187 20.168H16.4609C16.525 20.168 16.5766 20.1649 16.6102 20.1586L16.6164 20.1555H16.6211C16.6562 20.1508 16.6789 20.1399 16.6789 20.1305V18.5868V17.7047C16.6797 17.6844 16.5805 17.6672 16.4609 17.6672Z" fill="#D1D2D3"/>
<path d="M18.182 18.9141H0.464063C0.317188 18.9141 0.195312 18.9352 0.195312 18.9625V21.9469C0.195312 21.975 0.317188 21.9945 0.464063 21.9945H18.182C18.2602 21.9945 18.3227 21.9906 18.3648 21.9828L18.3711 21.9813C18.3742 21.9813 18.3742 21.9781 18.3773 21.9781C18.4195 21.9727 18.45 21.9633 18.45 21.9477V20.05V18.9633C18.4508 18.9352 18.3289 18.9141 18.182 18.9141Z" fill="white"/>
<path d="M17.3672 1.70081H1.27189C1.13986 1.70081 1.02814 1.7969 1.02814 1.90627V15.2516C1.02814 15.3649 1.13986 15.4594 1.27189 15.4594H17.3672C17.4281 15.4619 17.4877 15.4421 17.5352 15.4039L17.5414 15.3977L17.5461 15.3883C17.5671 15.3721 17.5839 15.3513 17.5953 15.3274C17.6067 15.3035 17.6123 15.2773 17.6117 15.2508V6.76409V1.90549C17.6117 1.7969 17.5016 1.70081 17.3672 1.70081Z" fill="#E7E6E6"/>
<path d="M16.9359 2.45935H2.16638C2.04451 2.45935 1.94373 2.54607 1.94373 2.64841V14.8906C1.94373 14.9945 2.04451 15.0812 2.16638 15.0812H16.9359C17.0015 15.0812 17.0531 15.0633 17.0898 15.0328C17.0898 15.0328 17.0898 15.0297 17.0929 15.025C17.0961 15.025 17.0961 15.0211 17.0992 15.0172C17.1185 15.0023 17.1341 14.9831 17.1447 14.9611C17.1553 14.9391 17.1606 14.915 17.1601 14.8906V7.10701V2.64841C17.1601 2.54607 17.0578 2.45935 16.9359 2.45935Z" fill="#D1D2D3"/>
<path d="M15.8844 2.92114H2.64608C2.53593 2.92114 2.44452 2.99927 2.44452 3.09067V14.0672C2.44452 14.1602 2.53593 14.2383 2.64608 14.2383H15.8844C15.934 14.2403 15.9828 14.2246 16.0219 14.1938C16.0219 14.1938 16.0219 14.1899 16.025 14.1868C16.0281 14.1868 16.0281 14.1836 16.0312 14.1805C16.0481 14.1669 16.0616 14.1496 16.0709 14.13C16.0801 14.1104 16.0847 14.0889 16.0844 14.0672V7.08833V3.09067C16.0844 2.99927 15.993 2.92114 15.8844 2.92114Z" fill="#57C6E9"/>
<path d="M9.51875 10.2578C11.7312 11.9508 13.893 13.1008 16.1438 13.7977V3.09141C16.1438 2.99922 16.0523 2.92188 15.9422 2.92188H3.79297C5.04219 5.92344 7.18984 8.47969 9.51875 10.2578Z" fill="#27A8E0"/>
<path d="M9.53357 12.0539C6.86326 10.1984 4.18982 7.6281 2.50232 4.45154V14.0679C2.50232 14.1609 2.59373 14.239 2.70388 14.239H13.5101C12.1096 13.6563 10.7763 12.9237 9.53357 12.0539Z" fill="#27A8E0"/>
<path d="M41.9766 19.5781V16.4929V14.532C41.9766 14.4906 41.9586 14.4539 41.9367 14.4539H39.4156C39.3977 14.4539 39.3789 14.4906 39.3789 14.532V19.5781C39.3789 19.5999 39.382 19.6179 39.3875 19.6304L39.3891 19.6328H39.3922C39.3977 19.6453 39.4078 19.6539 39.4156 19.6539H41.9367C41.9586 19.6539 41.9766 19.621 41.9766 19.5781Z" fill="#D1D2D3"/>
<path d="M47.8125 17.6672H33.4234C33.3055 17.6672 33.207 17.6836 33.207 17.7055V20.1313C33.207 20.1524 33.3055 20.168 33.4234 20.168H47.8125C47.8766 20.168 47.9281 20.1649 47.9625 20.1586L47.968 20.1555H47.9742C48.0078 20.1508 48.032 20.1399 48.032 20.1305V18.5868V17.7047C48.032 17.6844 47.9336 17.6672 47.8125 17.6672Z" fill="#D1D2D3"/>
<path d="M49.5391 18.9141H31.8211C31.6742 18.9141 31.5539 18.9352 31.5539 18.9625V21.9469C31.5539 21.975 31.6742 21.9945 31.8211 21.9945H49.5391C49.6187 21.9945 49.6797 21.9906 49.7226 21.9828C49.7258 21.9828 49.7258 21.9813 49.7281 21.9813C49.7312 21.9813 49.7328 21.9781 49.7328 21.9781C49.7773 21.9727 49.8078 21.9633 49.8078 21.9477V20.05V18.9633C49.8078 18.9352 49.6867 18.9141 49.5391 18.9141Z" fill="white"/>
<path d="M48.7266 1.70081H32.632C32.4977 1.70081 32.3875 1.7969 32.3875 1.90706V15.2524C32.3875 15.3657 32.4984 15.4602 32.632 15.4602H48.7281C48.7887 15.4625 48.8481 15.4428 48.8953 15.4047L48.9024 15.3985L48.9078 15.3891C48.9283 15.3726 48.9447 15.3516 48.9558 15.3278C48.967 15.3039 48.9724 15.2779 48.9719 15.2516V6.76487V1.90627C48.9719 1.7969 48.8625 1.70081 48.7281 1.70081" fill="#E7E6E6"/>
<path d="M48.2906 2.45935H33.5211C33.4 2.45935 33.2985 2.54607 33.2985 2.64841V14.8906C33.2985 14.9945 33.4 15.0812 33.5211 15.0812H48.2906C48.3455 15.0834 48.3995 15.0663 48.443 15.0328C48.443 15.0328 48.443 15.0297 48.4461 15.025C48.4492 15.025 48.4508 15.0211 48.4524 15.0172C48.4718 15.0024 48.4876 14.9832 48.4983 14.9612C48.509 14.9392 48.5144 14.9151 48.5141 14.8906V7.10701V2.64841C48.5149 2.54607 48.4133 2.45935 48.2906 2.45935Z" fill="#D1D2D3"/>
<path d="M47.2422 2.92114H34.0039C33.8938 2.92114 33.8024 2.99927 33.8024 3.09067V14.0672C33.8024 14.1602 33.8938 14.2383 34.0039 14.2383H47.2422C47.2919 14.2403 47.3407 14.2246 47.3797 14.1938L47.3828 14.1868C47.386 14.1868 47.3875 14.1836 47.3899 14.1805C47.4066 14.1667 47.4201 14.1494 47.4294 14.1299C47.4387 14.1103 47.4436 14.0889 47.4438 14.0672V7.08833V3.09067C47.4438 2.99927 47.3524 2.92114 47.2422 2.92114Z" fill="#57C6E9"/>
<path d="M40.875 10.2578C43.0875 11.9508 45.2515 13.1008 47.5 13.7977V3.09141C47.5 2.99922 47.4094 2.92188 47.2984 2.92188H35.1516C36.3984 5.92344 38.5469 8.47969 40.875 10.2578Z" fill="#27A8E0"/>
<path d="M40.8906 12.0539C38.2187 10.1984 35.5461 7.6281 33.8594 4.45154V14.0679C33.8594 14.1609 33.9523 14.239 34.0609 14.239H44.868C43.4676 13.6565 42.1346 12.9238 40.8922 12.0539" fill="#27A8E0"/>
<path d="M25.7367 47.6719V44.5867V42.6266C25.7367 42.5836 25.7188 42.5469 25.6969 42.5469H23.1781C23.1563 42.5469 23.1383 42.5836 23.1383 42.6266V47.6719C23.1383 47.693 23.1446 47.7117 23.1477 47.7227L23.1508 47.7258H23.1516C23.1563 47.7383 23.1672 47.7477 23.1781 47.7477H25.6969C25.7188 47.7477 25.7367 47.7141 25.7367 47.6719Z" fill="#D1D2D3"/>
<path d="M31.5703 45.7656H17.1812C17.0625 45.7656 16.9633 45.7805 16.9633 45.8023V48.2281C16.9633 48.25 17.0625 48.2648 17.1812 48.2648H31.5703C31.6344 48.2648 31.6844 48.2617 31.7195 48.2562C31.7195 48.2562 31.7226 48.2562 31.7258 48.2531H31.7289C31.7656 48.2461 31.7883 48.2375 31.7883 48.2281V46.6844V45.8023C31.7883 45.7805 31.689 45.7656 31.5703 45.7656Z" fill="#D1D2D3"/>
<path d="M33.2961 47.0078H15.5797C15.4328 47.0078 15.3109 47.0281 15.3109 47.0563V50.0414C15.3109 50.0695 15.4328 50.0898 15.5797 50.0898H33.2961C33.3758 50.0898 33.4367 50.0844 33.4804 50.0773C33.4836 50.0773 33.4836 50.0742 33.4867 50.0742C33.4867 50.0742 33.4898 50.0742 33.4929 50.0711C33.5367 50.0656 33.5648 50.0555 33.5648 50.0406V48.1422V47.0555C33.5648 47.0281 33.4445 47.0078 33.2961 47.0078Z" fill="white"/>
<path d="M32.4859 29.7969H16.3906C16.2562 29.7969 16.1469 29.8914 16.1469 30.0023V43.3469C16.1469 43.4602 16.257 43.5547 16.3906 43.5547H32.4844C32.5451 43.5576 32.6049 43.5387 32.6531 43.5016L32.657 43.4938C32.657 43.4938 32.6617 43.4883 32.6633 43.4844C32.6842 43.4681 32.701 43.4473 32.7126 43.4234C32.7241 43.3996 32.7299 43.3734 32.7297 43.3469V34.8641V30.0023C32.7297 29.8914 32.6187 29.7969 32.4844 29.7969" fill="#E7E6E6"/>
<path d="M32.0469 30.5469H17.2781C17.1563 30.5469 17.0555 30.6344 17.0555 30.7359V42.9789C17.0555 43.0836 17.1563 43.168 17.2781 43.168H32.0477C32.1133 43.168 32.1649 43.15 32.2016 43.1211C32.2016 43.1211 32.2016 43.1164 32.2047 43.1133C32.2078 43.1133 32.2078 43.1063 32.2117 43.1031C32.2307 43.0883 32.246 43.0694 32.2564 43.0477C32.2669 43.026 32.2722 43.0022 32.2719 42.9781V35.1938V30.7352C32.2711 30.6352 32.168 30.5469 32.0469 30.5469Z" fill="#D1D2D3"/>
<path d="M30.9985 31.014H17.7617C17.6516 31.014 17.5602 31.0937 17.5602 31.1843V42.1609C17.5602 42.2531 17.6516 42.3297 17.7617 42.3297H30.9985C31.048 42.3328 31.097 42.3175 31.136 42.2867L31.1406 42.2781C31.1446 42.2781 31.1446 42.2765 31.1469 42.2711C31.1636 42.2578 31.1771 42.2409 31.1864 42.2217C31.1958 42.2025 31.2007 42.1815 31.2008 42.1601V35.1789V31.1828C31.2008 31.0937 31.1063 31.014 30.9985 31.014Z" fill="#57C6E9"/>
<path d="M24.6344 38.3515C26.8469 40.0445 29.0086 41.1953 31.2594 41.8929V31.1867C31.2594 31.096 31.168 31.0164 31.0579 31.0164H18.9086C20.1571 34.0171 22.3055 36.5742 24.6344 38.3515Z" fill="#27A8E0"/>
<path d="M24.6492 40.1484C21.9789 38.2945 19.3055 35.7242 17.618 32.5476V42.1648C17.618 42.257 17.7094 42.3335 17.8195 42.3335H28.6242C27.2234 41.7525 25.8905 41.0197 24.6492 40.1484Z" fill="#27A8E0"/>
<path d="M32.0625 8.77026C32.0625 9.48589 31.4797 10.0671 30.7641 10.0671H19.3992C19.2289 10.0671 19.0603 10.0336 18.9029 9.96842C18.7456 9.90325 18.6026 9.80772 18.4822 9.68729C18.3618 9.56687 18.2662 9.4239 18.2011 9.26656C18.1359 9.10921 18.1024 8.94057 18.1024 8.77026C18.1024 8.59996 18.1359 8.43132 18.2011 8.27397C18.2662 8.11663 18.3618 7.97366 18.4822 7.85324C18.6026 7.73281 18.7456 7.63728 18.9029 7.57211C19.0603 7.50693 19.2289 7.47339 19.3992 7.47339H30.7641C31.4797 7.47339 32.0625 8.05308 32.0625 8.77026Z" fill="white"/>
<path d="M43.6094 24.2578C44.1797 24.6914 44.2859 25.5078 43.85 26.0773L36.9281 35.0906C36.8257 35.2294 36.6967 35.3464 36.5486 35.4348C36.4004 35.5231 36.2362 35.5811 36.0654 35.6052C35.8946 35.6293 35.7207 35.6192 35.5539 35.5753C35.3871 35.5315 35.2307 35.4548 35.0939 35.3498C34.957 35.2448 34.8425 35.1135 34.757 34.9638C34.6714 34.814 34.6166 34.6486 34.5957 34.4774C34.5748 34.3062 34.5883 34.1326 34.6353 33.9666C34.6823 33.8006 34.762 33.6457 34.8695 33.5109L41.7906 24.4961C42.0003 24.2234 42.3097 24.0452 42.6507 24.0005C42.9917 23.9558 43.3365 24.0484 43.6094 24.2578Z" fill="white"/>
<path d="M5.01248 24.2578C4.73996 24.4677 4.56184 24.7772 4.51717 25.1183C4.4725 25.4594 4.56493 25.8043 4.7742 26.0773L11.6969 35.0906C11.9063 35.3634 12.2156 35.5418 12.5566 35.5865C12.8976 35.6313 13.2424 35.5387 13.5152 35.3293C13.788 35.1198 13.9664 34.8105 14.0111 34.4695C14.0559 34.1285 13.9634 33.7837 13.7539 33.5109L6.83279 24.4953C6.62259 24.2228 6.31294 24.0448 5.97172 24.0003C5.6305 23.9558 5.28555 24.0484 5.01248 24.2578Z" fill="white"/>
</g>
<defs>
<clipPath id="clip0">
<rect width="50" height="50" fill="white"/>
</clipPath>
</defs>
</svg>
