<svg width="50" height="52" viewBox="0 0 50 52" fill="none" xmlns="http://www.w3.org/2000/svg">
<path d="M25.954 0.469708C25.6611 0.176815 25.1863 0.176815 24.8934 0.469708L20.1204 5.24268C19.8275 5.53557 19.8275 6.01045 20.1204 6.30334C20.4133 6.59623 20.8882 6.59623 21.1811 6.30334L25.4237 2.0607L29.6663 6.30334C29.9592 6.59623 30.4341 6.59623 30.727 6.30334C31.0199 6.01045 31.0199 5.53557 30.727 5.24268L25.954 0.469708ZM26.1737 9.62073V1.00004H24.6737V9.62073H26.1737Z" fill="white"/>
<path d="M24.8934 51.5303C25.1863 51.8232 25.6611 51.8232 25.954 51.5303L30.727 46.7573C31.0199 46.4644 31.0199 45.9896 30.727 45.6967C30.4341 45.4038 29.9592 45.4038 29.6663 45.6967L25.4237 49.9393L21.1811 45.6967C20.8882 45.4038 20.4133 45.4038 20.1204 45.6967C19.8275 45.9896 19.8275 46.4644 20.1204 46.7573L24.8934 51.5303ZM24.6737 42.3793V51H26.1737V42.3793H24.6737Z" fill="white"/>
<path d="M3.09627 12.3244C2.69163 12.3957 2.42238 12.7869 2.49488 13.1981L3.67622 19.8987C3.74871 20.3099 4.1355 20.5854 4.54013 20.5141C4.94477 20.4428 5.21402 20.0516 5.14153 19.6404L4.09144 13.6843L9.95267 12.6509C10.3573 12.5796 10.6266 12.1884 10.5541 11.7772C10.4816 11.3661 10.0948 11.0906 9.69014 11.1619L3.09627 12.3244ZM10.5947 17.3958L3.65278 12.4511L2.80228 13.6867L9.74425 18.6313L10.5947 17.3958Z" fill="white"/>
<path d="M2.49488 39.4362C2.42238 39.8474 2.69163 40.2385 3.09627 40.3099L9.69014 41.4724C10.0948 41.5437 10.4816 41.2682 10.5541 40.857C10.6266 40.4459 10.3573 40.0547 9.95267 39.9834L4.09144 38.95L5.14153 32.9939C5.21402 32.5827 4.94477 32.1915 4.54013 32.1202C4.1355 32.0488 3.74871 32.3243 3.67622 32.7355L2.49488 39.4362ZM9.74425 34.0029L2.80228 38.9476L3.65278 40.1831L10.5947 35.2385L9.74425 34.0029Z" fill="white"/>
<path d="M46.0563 40.3099C46.4609 40.2385 46.7301 39.8474 46.6577 39.4362L45.4763 32.7355C45.4038 32.3243 45.017 32.0488 44.6124 32.1202C44.2078 32.1915 43.9385 32.5827 44.011 32.9939L45.0611 38.95L39.1999 39.9834C38.7952 40.0547 38.526 40.4459 38.5985 40.857C38.671 41.2682 39.0577 41.5437 39.4624 41.4724L46.0563 40.3099ZM38.5578 35.2385L45.4997 40.1831L46.3502 38.9476L39.4083 34.0029L38.5578 35.2385Z" fill="white"/>
<path d="M46.6577 13.1981C46.7301 12.7869 46.4609 12.3957 46.0563 12.3244L39.4624 11.1619C39.0577 11.0906 38.671 11.3661 38.5985 11.7772C38.526 12.1884 38.7952 12.5796 39.1999 12.6509L45.0611 13.6843L44.011 19.6404C43.9385 20.0516 44.2078 20.4428 44.6124 20.5141C45.017 20.5854 45.4038 20.3099 45.4763 19.8987L46.6577 13.1981ZM39.4083 18.6313L46.3502 13.6867L45.4997 12.4511L38.5578 17.3958L39.4083 18.6313Z" fill="white"/>
<path d="M26.1737 25.9711V13.5612L35.6907 19.5188V30.8116L26.1737 25.9711Z" stroke="white" stroke-width="1.5"/>
<path d="M24.1744 25.946L13.4565 30.8657L13.4565 19.5447L24.1744 13.4897L24.1744 25.946Z" fill="#AAD3FF" stroke="white" stroke-width="1.5"/>
<path d="M14.325 32.5542L24.9886 27.6916L34.9139 32.5528L24.986 38.9115L14.325 32.5542Z" fill="#C7DBF2" fill-opacity="0.49" stroke="white" stroke-width="1.5"/>
<path d="M16.1992 7.46548C16.1992 8.72978 15.195 9.73273 13.9831 9.73273C12.7712 9.73273 11.767 8.72979 11.767 7.46548C11.767 6.20118 12.7712 5.19824 13.9831 5.19824C15.195 5.19824 16.1992 6.20118 16.1992 7.46548Z" stroke="white" stroke-width="1.5"/>
<path d="M39.0805 7.46548C39.0805 8.72978 38.0763 9.73273 36.8644 9.73273C35.6525 9.73273 34.6483 8.72979 34.6483 7.46548C34.6483 6.20118 35.6525 5.19824 36.8644 5.19824C38.0763 5.19824 39.0805 6.20118 39.0805 7.46548Z" stroke="white" stroke-width="1.5"/>
<path d="M49.25 26.4311C49.25 27.6954 48.2458 28.6983 47.0339 28.6983C45.822 28.6983 44.8178 27.6954 44.8178 26.4311C44.8178 25.1668 45.822 24.1638 47.0339 24.1638C48.2458 24.1638 49.25 25.1668 49.25 26.4311Z" stroke="white" stroke-width="1.5"/>
<path d="M39.0805 46.2586C39.0805 47.5229 38.0763 48.5258 36.8644 48.5258C35.6525 48.5258 34.6483 47.5229 34.6483 46.2586C34.6483 44.9943 35.6525 43.9913 36.8644 43.9913C38.0763 43.9913 39.0805 44.9943 39.0805 46.2586Z" stroke="white" stroke-width="1.5"/>
<path d="M16.1992 46.2586C16.1992 47.5229 15.195 48.5258 13.9831 48.5258C12.7712 48.5258 11.767 47.5229 11.767 46.2586C11.767 44.9943 12.7712 43.9913 13.9831 43.9913C15.195 43.9913 16.1992 44.9943 16.1992 46.2586Z" stroke="white" stroke-width="1.5"/>
<path d="M5.1822 26.4311C5.1822 27.6954 4.17799 28.6983 2.9661 28.6983C1.75422 28.6983 0.75 27.6954 0.75 26.4311C0.75 25.1668 1.75422 24.1638 2.9661 24.1638C4.17799 24.1638 5.1822 25.1668 5.1822 26.4311Z" stroke="white" stroke-width="1.5"/>
</svg>
