<svg width="38" height="38" viewBox="0 0 38 38" fill="none" xmlns="http://www.w3.org/2000/svg">
<path d="M15.6057 9.34049C14.7876 7.69848 14.4905 5.71476
14.8059 4.31853C15.3051 2.19689 17.1365 0.824951 19 0.824951C20.8428
0.824951 22.6937 2.20045 23.1683 4.31423L23.1686 4.31567C23.485 5.71213 23.1881
 7.69775 22.372 9.34145C21.5463 11.0047 20.3377 12.05 19 12.05C17.6478 12.05 16.4334 11.0018 15.6057
 9.34049ZM4.48073 6.56909L4.48114 6.56731C4.8808 4.82139 6.41178 3.67495 7.92505 3.67495C9.43832 3.67495
  10.9693 4.82139 11.369 6.56731L11.3694 6.56909C11.6339 7.71208 11.3888 9.36418 10.7011 10.7395C10.0042
  12.1333 9.00215 12.975 7.92505 12.975C6.84795 12.975 5.84586 12.1333 5.14899 10.7395C4.46131 9.36418
   4.21614 7.71208 4.48073 6.56909ZM26.6307 6.56909L26.6311 6.56731C27.0314 4.81881 28.5644 3.67495 30.0501
    3.67495C31.5633 3.67495 33.0943 4.82139 33.494 6.56731L33.4944 6.56909C33.759 7.71208 33.5138 9.36418 32.8261
     10.7395C32.1292 12.1333 31.1272 12.975 30.0501 12.975C28.988 12.975 27.9915 12.1367 27.2964 10.7407C26.6113
     9.36464 26.3661 7.71218 26.6307 6.56909ZM26.8343 24.0008L26.832 24.0082L26.8299 24.0156L23.7078 34.7554C23.4953
      35.4104 22.9239 36.0329 22.0577 36.5034C21.1953 36.9718 20.1068 37.25 19 37.25C17.8663 37.25 16.7719 36.9709
       15.9111 36.5034C15.0471 36.0341 14.48 35.412 14.267 34.7547L11.1198 24.0141L11.1199 24.014L11.1166
       24.0034C10.2084 21.0667 10.6689 18.8497 11.9889 17.3637C13.3348 15.8485 15.7203 14.925 19
        14.925C22.2669 14.925 24.6455 15.8482 25.9852 17.3625C27.299 18.8476 27.7543 21.0639 26.8343 24.0008ZM8.409
        15.6841C7.1237 17.5582 6.04005 20.6326 7.40688 25.0912C7.40726 25.0924 7.40765 25.0937 7.40804 25.0949L10.0282
        33.9616C9.39942 34.2267 8.66667 34.375 7.92505 34.375C6.97706 34.375 6.07055 34.1451 5.36126 33.7597C4.65083
         33.3737 4.1928 32.8647 4.01667 32.3284L1.34476 23.214L1.34483 23.2139L1.34181 23.2042C0.583256 20.7418 0.975291
         18.9128 2.05994 17.6958C3.17096 16.4493 5.15634 15.675 7.92505 15.675C8.08691 15.675 8.24848 15.678 8.409
         15.6841ZM36.6343 23.2011L36.6341 23.201L36.6303 23.214L33.9585 32.3283C33.7823 32.8646 33.3243 33.3736 32.6138
          33.7597C31.9045 34.1451 30.998 34.375 30.0501 34.375C29.3082 34.375 28.5752 34.2266 27.9463 33.9614L30.5431 25.1415C31.932 20.6418 30.8555 17.5642 29.5443 15.6845C29.7096
           15.6781 29.878 15.675 30.0501 15.675C32.819 15.675 34.811 16.4494 35.9251 17.6965C37.0118 18.9129 37.404 20.7403 36.6343 23.2011Z" fill="white" stroke="white" stroke-width="1.5"/>
</svg>
