<svg width="42" height="39" viewBox="0 0 42 39" fill="none" xmlns="http://www.w3.org/2000/svg">
    <path d="M7.78335 37.6646C7.48423 37.9247 7.11711 38.094 6.72509 38.1528C6.33308 38.2115 5.93244 38.1572 5.57021 37.9962C5.20797 37.8352 4.89919 37.5742 4.68011 37.2439C4.46102 36.9136 4.34073 36.5276 4.33335 36.1312V31.4583C3.22829 31.4583 2.16848 31.0193 1.38708 30.2379C0.605674 29.4565 0.166687 28.3967 0.166687 27.2916V12.7083C0.166687 11.6032 0.605674 10.5434 1.38708 9.76203C2.16848 8.98063 3.22829 8.54165 4.33335 8.54165H27.25C28.3551 8.54165 29.4149 8.98063 30.1963 9.76203C30.9777 10.5434 31.4167 11.6032 31.4167 12.7083V27.2916C31.4167 28.3967 30.9777 29.4565 30.1963 30.2379C29.4149 31.0193 28.3551 31.4583 27.25 31.4583H16.8396L7.78335 37.6646ZM9.54169 31.2208C9.73153 31.2197 9.91795 31.1702 10.0834 31.0771L14.9896 27.6646C15.3388 27.4217 15.7539 27.2916 16.1792 27.2916H25.1667C25.7192 27.2916 26.2491 27.0722 26.6398 26.6814C27.0305 26.2908 27.25 25.7608 27.25 25.2083V14.7916C27.25 14.2391 27.0305 13.7092 26.6398 13.3185C26.2491 12.9278 25.7192 12.7083 25.1667 12.7083H6.41669C5.86415 12.7083 5.33425 12.9278 4.94355 13.3185C4.55285 13.7092 4.33335 14.2391 4.33335 14.7916V25.2083C4.33335 26.3333 5.2271 27.2541 6.41669 27.2916C7.27085 27.325 7.8896 27.4646 8.17502 27.7625C8.44169 28.0416 8.45627 28.5125 8.50002 29.4083C8.50627 29.5396 8.50627 29.7771 8.50002 30.1791C8.50002 30.4554 8.60977 30.7204 8.80512 30.9157C9.00047 31.1111 9.26542 31.2208 9.54169 31.2208ZM33.5 21.075C33.4934 21.3319 33.4934 21.5889 33.5 21.8458V21.075C33.5417 20.1791 33.5584 19.7083 33.825 19.4291C34.1104 19.1312 34.7292 18.9916 35.5834 18.9583C36.7729 18.9208 37.6667 18 37.6667 16.875V6.45831C37.6667 5.90578 37.4472 5.37587 37.0565 4.98517C36.6658 4.59447 36.1359 4.37498 35.5834 4.37498H16.8334C16.2808 4.37498 15.7509 4.59447 15.3602 4.98517C14.9695 5.37587 14.75 5.90578 14.75 6.45831H10.5834V4.37498C10.5834 3.26991 11.0223 2.2101 11.8037 1.4287C12.5851 0.6473 13.645 0.208313 14.75 0.208313H37.6667C38.7718 0.208313 39.8316 0.6473 40.613 1.4287C41.3944 2.2101 41.8334 3.26991 41.8334 4.37498V18.9583C41.8334 20.0634 41.3944 21.1232 40.613 21.9046C39.8316 22.686 38.7718 23.125 37.6667 23.125V27.7979C37.6593 28.1942 37.539 28.5802 37.3199 28.9106C37.1009 29.2409 36.7921 29.5019 36.4298 29.6629C36.0676 29.8239 35.667 29.8782 35.2749 29.8195C34.8829 29.7607 34.5158 29.5913 34.2167 29.3312L33.5 28.8396V21.0771V21.075Z" fill="#2791FE"/>
</svg>
