<svg width="177" height="24" viewBox="0 0 177 24" fill="none" xmlns="http://www.w3.org/2000/svg">
<path d="M7.75977 13.4932C5.34766 12.7998 3.58984 11.9502 2.48633 10.9443C1.39258 9.92871 0.845703 8.67871 0.845703 7.19434C0.845703 5.51465 1.51465 4.12793 2.85254 3.03418C4.2002 1.93066 5.94824 1.37891 8.09668 1.37891C9.56152 1.37891 10.8652 1.66211 12.0078 2.22852C13.1602 2.79492 14.0488 3.57617 14.6738 4.57227C15.3086 5.56836 15.626 6.65723 15.626 7.83887H12.7988C12.7988 6.5498 12.3887 5.53906 11.5684 4.80664C10.748 4.06445 9.59082 3.69336 8.09668 3.69336C6.70996 3.69336 5.62598 4.00098 4.84473 4.61621C4.07324 5.22168 3.6875 6.06641 3.6875 7.15039C3.6875 8.01953 4.05371 8.75684 4.78613 9.3623C5.52832 9.95801 6.7832 10.5049 8.55078 11.0029C10.3281 11.501 11.7148 12.0527 12.7109 12.6582C13.7168 13.2539 14.459 13.9521 14.9375 14.7529C15.4258 15.5537 15.6699 16.4961 15.6699 17.5801C15.6699 19.3086 14.9961 20.6953 13.6484 21.7402C12.3008 22.7754 10.499 23.293 8.24316 23.293C6.77832 23.293 5.41113 23.0146 4.1416 22.458C2.87207 21.8916 1.89062 21.1201 1.19727 20.1436C0.513672 19.167 0.171875 18.0586 0.171875 16.8184H2.99902C2.99902 18.1074 3.47266 19.1279 4.41992 19.8799C5.37695 20.6221 6.65137 20.9932 8.24316 20.9932C9.72754 20.9932 10.8652 20.6904 11.6562 20.085C12.4473 19.4795 12.8428 18.6543 12.8428 17.6094C12.8428 16.5645 12.4766 15.7588 11.7441 15.1924C11.0117 14.6162 9.68359 14.0498 7.75977 13.4932ZM21.5732 9.06934C22.7744 7.59473 24.3369 6.85742 26.2607 6.85742C29.6104 6.85742 31.2998 8.74707 31.3291 12.5264V23H28.6191V12.5117C28.6094 11.3691 28.3457 10.5244 27.8281 9.97754C27.3203 9.43066 26.5244 9.15723 25.4404 9.15723C24.5615 9.15723 23.79 9.3916 23.126 9.86035C22.4619 10.3291 21.9443 10.9443 21.5732 11.7061V23H18.8633V0.5H21.5732V9.06934ZM41.9639 23.293C39.8154 23.293 38.0674 22.5898 36.7197 21.1836C35.3721 19.7676 34.6982 17.8779 34.6982 15.5146V15.0166C34.6982 13.4443 34.9961 12.043 35.5918 10.8125C36.1973 9.57227 37.0371 8.60547 38.1113 7.91211C39.1953 7.20898 40.3672 6.85742 41.627 6.85742C43.6875 6.85742 45.2891 7.53613 46.4316 8.89355C47.5742 10.251 48.1455 12.1943 48.1455 14.7236V15.8516H37.4082C37.4473 17.4141 37.9014 18.6787 38.7705 19.6455C39.6494 20.6025 40.7627 21.0811 42.1104 21.0811C43.0674 21.0811 43.8779 20.8857 44.542 20.4951C45.2061 20.1045 45.7871 19.5869 46.2852 18.9424L47.9404 20.2314C46.6123 22.2725 44.6201 23.293 41.9639 23.293ZM41.627 9.08398C40.5332 9.08398 39.6152 9.48438 38.873 10.2852C38.1309 11.0762 37.6719 12.1895 37.4961 13.625H45.4355V13.4199C45.3574 12.043 44.9863 10.9785 44.3223 10.2266C43.6582 9.46484 42.7598 9.08398 41.627 9.08398ZM50.6357 14.9434C50.6357 12.5117 51.2119 10.5586 52.3643 9.08398C53.5166 7.59961 55.0254 6.85742 56.8906 6.85742C58.7461 6.85742 60.2158 7.49219 61.2998 8.76172V0.5H64.0098V23H61.5195L61.3877 21.3008C60.3037 22.6289 58.7949 23.293 56.8613 23.293C55.0254 23.293 53.5264 22.541 52.3643 21.0371C51.2119 19.5332 50.6357 17.5703 50.6357 15.1484V14.9434ZM53.3457 15.251C53.3457 17.0479 53.7168 18.4541 54.459 19.4697C55.2012 20.4854 56.2266 20.9932 57.5352 20.9932C59.2539 20.9932 60.5088 20.2217 61.2998 18.6787V11.3984C60.4893 9.9043 59.2441 9.15723 57.5645 9.15723C56.2363 9.15723 55.2012 9.66992 54.459 10.6953C53.7168 11.7207 53.3457 13.2393 53.3457 15.251ZM78.0137 21.4326C76.959 22.6729 75.4111 23.293 73.3701 23.293C71.6807 23.293 70.3916 22.8047 69.5029 21.8281C68.624 20.8418 68.1797 19.3867 68.1699 17.4629V7.15039H70.8799V17.3896C70.8799 19.792 71.8564 20.9932 73.8096 20.9932C75.8799 20.9932 77.2568 20.2217 77.9404 18.6787V7.15039H80.6504V23H78.0723L78.0137 21.4326ZM87.7256 23H85.0156V0.5H87.7256V23ZM95.0205 23H92.3105V7.15039H95.0205V23ZM92.0908 2.94629C92.0908 2.50684 92.2227 2.13574 92.4863 1.83301C92.7598 1.53027 93.1602 1.37891 93.6875 1.37891C94.2148 1.37891 94.6152 1.53027 94.8887 1.83301C95.1621 2.13574 95.2988 2.50684 95.2988 2.94629C95.2988 3.38574 95.1621 3.75195 94.8887 4.04492C94.6152 4.33789 94.2148 4.48438 93.6875 4.48438C93.1602 4.48438 92.7598 4.33789 92.4863 4.04492C92.2227 3.75195 92.0908 3.38574 92.0908 2.94629ZM101.905 20.7002H114.107V23H98.5801V20.8906L110.27 3.98633H98.7705V1.67188H113.639V3.7373L101.905 20.7002ZM119.864 20.7002H132.066V23H116.539V20.8906L128.229 3.98633H116.729V1.67188H131.598V3.7373L119.864 20.7002ZM137.823 20.7002H150.025V23H134.498V20.8906L146.188 3.98633H134.688V1.67188H149.557V3.7373L137.823 20.7002ZM159.503 23.293C157.354 23.293 155.606 22.5898 154.259 21.1836C152.911 19.7676 152.237 17.8779 152.237 15.5146V15.0166C152.237 13.4443 152.535 12.043 153.131 10.8125C153.736 9.57227 154.576 8.60547 155.65 7.91211C156.734 7.20898 157.906 6.85742 159.166 6.85742C161.227 6.85742 162.828 7.53613 163.971 8.89355C165.113 10.251 165.685 12.1943 165.685 14.7236V15.8516H154.947C154.986 17.4141 155.44 18.6787 156.31 19.6455C157.188 20.6025 158.302 21.0811 159.649 21.0811C160.606 21.0811 161.417 20.8857 162.081 20.4951C162.745 20.1045 163.326 19.5869 163.824 18.9424L165.479 20.2314C164.151 22.2725 162.159 23.293 159.503 23.293ZM159.166 9.08398C158.072 9.08398 157.154 9.48438 156.412 10.2852C155.67 11.0762 155.211 12.1895 155.035 13.625H162.975V13.4199C162.896 12.043 162.525 10.9785 161.861 10.2266C161.197 9.46484 160.299 9.08398 159.166 9.08398ZM176.495 9.58203C176.085 9.51367 175.641 9.47949 175.162 9.47949C173.385 9.47949 172.179 10.2363 171.544 11.75V23H168.834V7.15039H171.471L171.515 8.98145C172.403 7.56543 173.663 6.85742 175.294 6.85742C175.821 6.85742 176.222 6.92578 176.495 7.0625V9.58203Z" fill="white"/>
</svg>
