<svg width="240" height="38" viewBox="0 0 240 38" fill="none" xmlns="http://www.w3.org/2000/svg">
<path d="M10.5117 21.5918C7.61719 20.7598 5.50781 19.7402 4.18359 18.5332C2.87109 17.3145 2.21484 15.8145 2.21484 14.0332C2.21484 12.0176 3.01758 10.3535 4.62305 9.04102C6.24023 7.7168 8.33789 7.05469 10.916 7.05469C12.6738 7.05469 14.2383 7.39453 15.6094 8.07422C16.9922 8.75391 18.0586 9.69141 18.8086 10.8867C19.5703 12.082 19.9512 13.3887 19.9512 14.8066H16.5586C16.5586 13.2598 16.0664 12.0469 15.082 11.168C14.0977 10.2773 12.709 9.83203 10.916 9.83203C9.25195 9.83203 7.95117 10.2012 7.01367 10.9395C6.08789 11.666 5.625 12.6797 5.625 13.9805C5.625 15.0234 6.06445 15.9082 6.94336 16.6348C7.83398 17.3496 9.33984 18.0059 11.4609 18.6035C13.5938 19.2012 15.2578 19.8633 16.4531 20.5898C17.6602 21.3047 18.5508 22.1426 19.125 23.1035C19.7109 24.0645 20.0039 25.1953 20.0039 26.4961C20.0039 28.5703 19.1953 30.2344 17.5781 31.4883C15.9609 32.7305 13.7988 33.3516 11.0918 33.3516C9.33398 33.3516 7.69336 33.0176 6.16992 32.3496C4.64648 31.6699 3.46875 30.7441 2.63672 29.5723C1.81641 28.4004 1.40625 27.0703 1.40625 25.582H4.79883C4.79883 27.1289 5.36719 28.3535 6.50391 29.2559C7.65234 30.1465 9.18164 30.5918 11.0918 30.5918C12.873 30.5918 14.2383 30.2285 15.1875 29.502C16.1367 28.7754 16.6113 27.7852 16.6113 26.5312C16.6113 25.2773 16.1719 24.3105 15.293 23.6309C14.4141 22.9395 12.8203 22.2598 10.5117 21.5918ZM27.0879 16.2832C28.5293 14.5137 30.4043 13.6289 32.7129 13.6289C36.7324 13.6289 38.7598 15.8965 38.7949 20.4316V33H35.543V20.4141C35.5312 19.043 35.2148 18.0293 34.5938 17.373C33.9844 16.7168 33.0293 16.3887 31.7285 16.3887C30.6738 16.3887 29.748 16.6699 28.9512 17.2324C28.1543 17.7949 27.5332 18.5332 27.0879 19.4473V33H23.8359V6H27.0879V16.2832ZM51.5566 33.3516C48.9785 33.3516 46.8809 32.5078 45.2637 30.8203C43.6465 29.1211 42.8379 26.8535 42.8379 24.0176V23.4199C42.8379 21.5332 43.1953 19.8516 43.9102 18.375C44.6367 16.8867 45.6445 15.7266 46.9336 14.8945C48.2344 14.0508 49.6406 13.6289 51.1523 13.6289C53.625 13.6289 55.5469 14.4434 56.918 16.0723C58.2891 17.7012 58.9746 20.0332 58.9746 23.0684V24.4219H46.0898C46.1367 26.2969 46.6816 27.8145 47.7246 28.9746C48.7793 30.123 50.1152 30.6973 51.7324 30.6973C52.8809 30.6973 53.8535 30.4629 54.6504 29.9941C55.4473 29.5254 56.1445 28.9043 56.7422 28.1309L58.7285 29.6777C57.1348 32.127 54.7441 33.3516 51.5566 33.3516ZM51.1523 16.3008C49.8398 16.3008 48.7383 16.7812 47.8477 17.7422C46.957 18.6914 46.4062 20.0273 46.1953 21.75H55.7227V21.5039C55.6289 19.8516 55.1836 18.5742 54.3867 17.6719C53.5898 16.7578 52.5117 16.3008 51.1523 16.3008ZM61.9629 23.332C61.9629 20.4141 62.6543 18.0703 64.0371 16.3008C65.4199 14.5195 67.2305 13.6289 69.4688 13.6289C71.6953 13.6289 73.459 14.3906 74.7598 15.9141V6H78.0117V33H75.0234L74.8652 30.9609C73.5645 32.5547 71.7539 33.3516 69.4336 33.3516C67.2305 33.3516 65.4316 32.4492 64.0371 30.6445C62.6543 28.8398 61.9629 26.4844 61.9629 23.5781V23.332ZM65.2148 23.7012C65.2148 25.8574 65.6602 27.5449 66.5508 28.7637C67.4414 29.9824 68.6719 30.5918 70.2422 30.5918C72.3047 30.5918 73.8105 29.666 74.7598 27.8145V19.0781C73.7871 17.2852 72.293 16.3887 70.2773 16.3887C68.6836 16.3887 67.4414 17.0039 66.5508 18.2344C65.6602 19.4648 65.2148 21.2871 65.2148 23.7012ZM94.8164 31.1191C93.5508 32.6074 91.6934 33.3516 89.2441 33.3516C87.2168 33.3516 85.6699 32.7656 84.6035 31.5938C83.5488 30.4102 83.0156 28.6641 83.0039 26.3555V13.9805H86.2559V26.2676C86.2559 29.1504 87.4277 30.5918 89.7715 30.5918C92.2559 30.5918 93.9082 29.666 94.7285 27.8145V13.9805H97.9805V33H94.8867L94.8164 31.1191ZM106.471 33H103.219V6H106.471V33ZM115.225 33H111.973V13.9805H115.225V33ZM111.709 8.93555C111.709 8.4082 111.867 7.96289 112.184 7.59961C112.512 7.23633 112.992 7.05469 113.625 7.05469C114.258 7.05469 114.738 7.23633 115.066 7.59961C115.395 7.96289 115.559 8.4082 115.559 8.93555C115.559 9.46289 115.395 9.90234 115.066 10.2539C114.738 10.6055 114.258 10.7812 113.625 10.7812C112.992 10.7812 112.512 10.6055 112.184 10.2539C111.867 9.90234 111.709 9.46289 111.709 8.93555ZM123.504 30.3457H134.631V33H119.531V30.6094L130.025 16.6699H119.689V13.9805H134.104V16.2832L123.504 30.3457ZM141.363 30.3457H152.49V33H137.391V30.6094L147.885 16.6699H137.549V13.9805H151.963V16.2832L141.363 30.3457ZM159.223 30.3457H170.35V33H155.25V30.6094L165.744 16.6699H155.408V13.9805H169.822V16.2832L159.223 30.3457ZM181.635 33.3516C179.057 33.3516 176.959 32.5078 175.342 30.8203C173.725 29.1211 172.916 26.8535 172.916 24.0176V23.4199C172.916 21.5332 173.273 19.8516 173.988 18.375C174.715 16.8867 175.723 15.7266 177.012 14.8945C178.312 14.0508 179.719 13.6289 181.23 13.6289C183.703 13.6289 185.625 14.4434 186.996 16.0723C188.367 17.7012 189.053 20.0332 189.053 23.0684V24.4219H176.168C176.215 26.2969 176.76 27.8145 177.803 28.9746C178.857 30.123 180.193 30.6973 181.811 30.6973C182.959 30.6973 183.932 30.4629 184.729 29.9941C185.525 29.5254 186.223 28.9043 186.82 28.1309L188.807 29.6777C187.213 32.127 184.822 33.3516 181.635 33.3516ZM181.23 16.3008C179.918 16.3008 178.816 16.7812 177.926 17.7422C177.035 18.6914 176.484 20.0273 176.273 21.75H185.801V21.5039C185.707 19.8516 185.262 18.5742 184.465 17.6719C183.668 16.7578 182.59 16.3008 181.23 16.3008ZM202.025 16.8984C201.533 16.8164 201 16.7754 200.426 16.7754C198.293 16.7754 196.846 17.6836 196.084 19.5V33H192.832V13.9805H195.996L196.049 16.1777C197.115 14.4785 198.627 13.6289 200.584 13.6289C201.217 13.6289 201.697 13.7109 202.025 13.875V16.8984Z" fill="white"/>
</svg>
